# xmcd
#
# Track frame offsets:
#	150
#	10792
#	28928
#	44027
#	56426
#	72371
#	85758
#	102462
#	111952
#	125701
#	147171
#	160154
#	170588
#
# Disc length: 2485 seconds
# Revision: 0
# Processed by: cddbd v1.5.2PL0 Copyright (c) Steve Scherf et al.
# Submitted via: dBpowerAMP V12.0
#
DISCID=b809b30d
DTITLE=Joni Harms - Harms Way
DYEAR=2011
DGENRE=Country
TTITLE0=Here Comes Country
TTITLE1=Saddle Blanket
TTITLE2=If You Have a Heart
TTITLE3=Out on This Old Farm
TTITLE4=Love Won't get No Where
TTITLE5=Cupid's Arrow
TTITLE6=Buddy and Me
TTITLE7=Coyote Yodel
TTITLE8=Daddy's Boots
TTITLE9=Cowboy's Prayer
TTITLE10=Jealousy
TTITLE11=Western Star
TTITLE12=Harm's Way
EXTD=
EXTT0=
EXTT1=
EXTT2=
EXTT3=
EXTT4=
EXTT5=
EXTT6=
EXTT7=
EXTT8=
EXTT9=
EXTT10=
EXTT11=
EXTT12=
PLAYORDER=
